PathFileType	4	(X/Y/Z)	D:\TRACE\v60_Jaco2_6-2-23\BothDRS_Motion3_10-v60.trc
DataRate	CameraRate	NumFrames	NumMarkers	Units	OrigDataRate	OrigDataStartFrame	OrigNumFrames
100.00	100.00	      20	9	mm	100.00	1751	      7000
Frame#	Time	front left toe			Front right toe			aft left toe			aft right toe			Arm			FL body			FR body			AL Body			AR Body			
		X1	Y1	Z1	X2	Y2	Z2	X3	Y3	Z3	X4	Y4	Z4	X5	Y5	Z5	X6	Y6	Z6	X7	Y7	Z7	X8	Y8	Z8	X9	Y9	Z9	

1751	17.500	-166.80881	18.15779	-226.61504	251.97581	11.77556	-258.58115	-114.97488	18.96439	368.67892	200.86272	21.44549	394.93378	71.36487	1119.56616	-645.86169	-34.26524	511.51358	-418.76782	123.60281	503.41821	-421.16559	-9.56759	577.38904	522.94409	141.83232	560.16577	520.78687	
1752	17.510	-161.49376	20.60428	-223.78859	252.06308	11.88189	-258.66092	-116.35235	20.06276	368.59802	199.23764	28.60622	394.59201	71.66497	1118.21619	-647.82648	-33.70074	512.18939	-419.21341	123.97366	503.84839	-421.90982	-7.82593	578.51459	522.47552	143.62625	560.98468	520.25366	
1753	17.520	-160.68292	31.43570	-224.74794	251.67548	11.77980	-258.81097	-117.12556	20.59556	368.46359	198.78748	37.28113	395.41235	72.29620	1117.03101	-648.73505	-33.26073	512.60162	-419.63629	124.53302	504.42508	-422.15201	-6.56043	579.44440	522.07581	145.27618	561.97668	519.66681	
1754	17.530	-158.87988	40.83750	-225.84599	251.58664	11.56596	-258.71994	-116.43884	20.02412	368.23434	199.52998	48.71629	392.25562	73.34720	1116.14014	-649.68195	-32.68229	512.43542	-419.96121	125.31437	504.04419	-422.72769	-5.33052	579.98370	521.69214	145.67555	562.55469	519.12616	
1755	17.540	-159.68721	50.93255	-227.52748	251.80527	11.56303	-258.55338	-116.87688	20.47491	368.27399	201.81406	59.19114	390.93280	73.96033	1116.09534	-650.25055	-31.54590	511.96790	-420.12051	126.21240	503.86334	-422.95416	-4.96841	580.22699	521.12311	146.08179	562.89203	518.52362	
1756	17.550	-159.08247	63.08049	-229.52310	251.90417	11.43076	-258.53967	-116.34754	19.73940	368.42828	205.60106	70.28023	388.56247	74.96910	1116.49609	-650.69550	-30.92859	511.66434	-420.36652	126.63452	503.65076	-423.30670	-4.76350	580.10291	520.85205	146.06218	562.80695	518.68127	
1757	17.560	-158.50107	74.53854	-231.24519	251.88155	11.44898	-258.47699	-116.49641	19.45077	368.41205	209.51950	81.31498	386.54285	75.79221	1116.69482	-650.45203	-30.22078	511.48785	-420.92453	127.61380	503.16528	-423.10330	-4.64511	579.67590	520.69647	146.37093	562.36743	518.53668	
1758	17.570	-156.55623	85.50346	-232.76201	251.96507	11.33501	-258.49625	-116.54288	19.16031	368.46912	214.11546	92.45897	384.70175	77.09406	1116.78418	-649.79425	-29.87457	511.52106	-421.45062	128.02377	503.09866	-423.29312	-4.76266	579.22809	520.36279	146.42018	561.83344	518.50519	
1759	17.580	-154.13086	95.66125	-234.30074	252.08907	11.25753	-258.46890	-116.47650	18.83231	368.38815	217.16660	102.58464	382.88235	78.05721	1117.00366	-649.46570	-29.00581	511.50436	-421.51300	129.10915	502.87131	-423.43845	-4.80213	578.75787	520.30994	146.37106	561.22046	518.47589	
1760	17.590	-152.93848	106.86884	-236.72292	252.21948	11.35624	-258.30225	-116.97274	19.02877	368.48138	219.43913	112.79758	380.98477	79.30183	1117.12476	-649.22614	-28.50709	511.49615	-421.52182	130.40276	502.85165	-423.61716	-4.69486	578.00281	520.39459	146.38425	560.63959	518.60663	
1761	17.600	-151.37897	116.46411	-238.29539	252.15543	11.24998	-258.25540	-117.12424	18.75324	368.46512	221.07030	122.34456	379.43542	80.53754	1117.07813	-648.92059	-28.10107	511.51215	-421.41000	130.81779	502.79211	-423.47348	-4.96685	577.56982	520.51758	145.80611	560.00385	518.82220	
1762	17.610	-150.48154	125.34145	-239.59410	252.11064	11.35893	-258.13803	-117.24982	18.45719	368.59354	222.53598	131.50922	378.26602	81.10401	1116.54504	-648.66327	-27.51576	511.61673	-421.17239	131.22887	502.91034	-423.13461	-5.58150	577.15637	520.52228	145.41821	559.49609	519.07959	
1763	17.620	-149.50591	133.29988	-240.59747	252.15736	11.43201	-258.00784	-117.28957	18.23034	368.60034	224.10515	139.77588	377.13272	81.53087	1116.15344	-648.37891	-26.94485	511.60736	-420.61481	131.52623	503.00729	-422.84134	-5.81111	576.93988	520.93140	144.78549	559.16547	519.60028	
1764	17.630	-148.79514	140.48880	-241.33350	252.15013	11.47275	-257.76270	-117.31220	18.19661	368.55847	225.21863	145.75465	376.75296	82.14058	1115.43994	-648.04028	-26.38519	511.82690	-420.17401	132.07623	502.94232	-422.29242	-6.19625	576.88989	521.43817	144.47229	558.89575	520.39893	
1765	17.640	-148.61043	146.24988	-242.12595	252.23787	11.52990	-257.52988	-117.33492	18.16352	368.52914	226.77711	149.46358	376.65488	82.54179	1114.90710	-647.79688	-26.09005	512.21899	-419.90082	132.80188	502.84286	-421.49905	-7.04623	576.90747	521.96790	144.06836	558.79443	520.69006	
1766	17.650	-148.14507	148.50250	-241.79308	252.07642	11.54308	-257.50153	-117.33215	18.15492	368.57803	228.29106	150.38791	377.29797	82.58971	1114.67993	-647.70959	-25.80163	512.51031	-419.65591	133.21808	503.05829	-420.76828	-7.63731	576.89240	522.36786	143.40675	558.73126	521.62445	
1767	17.660	-147.49442	146.49802	-240.67427	252.22467	11.70105	-257.17264	-117.45071	17.97992	368.62540	230.10158	149.08473	378.73862	83.07799	1114.20544	-647.29028	-25.48685	512.65424	-418.95465	133.50511	503.29639	-420.09540	-8.64346	576.85675	523.19196	142.47632	558.78168	522.46527	
1768	17.670	-146.38867	142.30850	-239.18387	251.86684	11.71494	-257.05441	-117.55598	17.77124	368.77377	230.81076	145.83394	380.26154	83.80656	1113.84753	-646.72168	-25.20667	512.76910	-418.38617	133.60751	503.52670	-419.30011	-9.15379	576.97424	523.76831	142.08595	558.68256	523.30414	
1769	17.680	-145.13638	137.25520	-237.94612	251.75317	11.78467	-256.97552	-117.60732	17.58318	368.83786	231.40503	141.58745	381.68250	84.16568	1113.61499	-646.11377	-24.92946	512.92224	-417.65286	132.74452	503.95520	-418.11636	-10.43204	576.75482	524.46100	140.99564	558.56061	523.91223	
1770	17.690	-143.41806	131.52162	-237.04744	251.62985	11.84241	-256.79382	-117.64290	17.47787	368.90222	230.54610	136.36372	382.99188	84.31453	1113.57556	-645.15765	-24.86631	513.13568	-417.16135	133.06277	504.03931	-417.24228	-11.04394	576.63690	525.24908	140.15657	558.41852	524.99957	
